<mxfile host="app.diagrams.net" agent="Mozilla/5.0 (Windows NT 10.0; Win64; x64) AppleWebKit/537.36 (KHTML, like Gecko) Chrome/126.0.0.0 Safari/537.36 Edg/126.0.0.0" version="24.7.5">
  <diagram name="第 1 页" id="0hZUgJzcZRZ1j5rHrF9U">
    <mxGraphModel dx="1033" dy="704" grid="1" gridSize="10" guides="1" tooltips="1" connect="1" arrows="1" fold="1" page="0" pageScale="1" pageWidth="827" pageHeight="1169" math="0" shadow="0">
      <root>
        <mxCell id="0" />
        <mxCell id="1" parent="0" />
        <mxCell id="V7Jt63WchqsHkmsl8s2C-1" value="智能书法评测系统研究与开发&lt;div&gt;1、收集了书法作业的数据集，11008张图像，59个字，完成数据标注（1-10分）&lt;/div&gt;&lt;div&gt;2、预处理流程，并设计了12个人工美学特征，使用机器学习回归算法lightgbm建立预测模型&lt;/div&gt;&lt;div&gt;3、利用孪生网络输出相似度特征，&lt;/div&gt;" style="rounded=0;whiteSpace=wrap;html=1;align=left;verticalAlign=top;spacingTop=2;spacingLeft=4;" vertex="1" parent="1">
          <mxGeometry x="-140" y="-20" width="600" height="230" as="geometry" />
        </mxCell>
      </root>
    </mxGraphModel>
  </diagram>
</mxfile>
